<svg xmlns="http://www.w3.org/2000/svg" version="1.1" viewBox="-5.0 -10.0 110.0 135.0">
 <path d="m76.562 4.6875h-53.125c-9.4766 0-17.188 7.7109-17.188 17.188v56.25c0 9.4766 7.7109 17.188 17.188 17.188h53.125c9.4766 0 17.188-7.7109 17.188-17.188v-56.25c0-9.4766-7.7109-17.188-17.188-17.188zm-26.562 71.875c-14.648 0-26.562-11.914-26.562-26.562s11.914-26.562 26.562-26.562 26.562 11.914 26.562 26.562-11.914 26.562-26.562 26.562zm31.156-53.766c-0.0625 0.29688-0.14062 0.59375-0.26562 0.875s-0.26562 0.54688-0.4375 0.8125c-0.17188 0.25-0.35938 0.48438-0.57812 0.70312-0.875 0.875-2.0781 1.375-3.3125 1.375-0.29688 0-0.60938-0.03125-0.92188-0.09375-0.29688-0.0625-0.59375-0.14062-0.875-0.26562-0.28125-0.10938-0.54688-0.26562-0.79688-0.4375-0.26562-0.15625-0.5-0.35938-0.71875-0.57812s-0.40625-0.45312-0.57812-0.70312c-0.17188-0.26562-0.3125-0.53125-0.4375-0.8125s-0.20312-0.57812-0.26562-0.875c-0.0625-0.3125-0.09375-0.60938-0.09375-0.92188s0.03125-0.60938 0.09375-0.92188c0.0625-0.29688 0.14062-0.59375 0.26562-0.875s0.26562-0.54688 0.4375-0.79688c0.17188-0.26562 0.35938-0.5 0.57812-0.71875s0.45312-0.40625 0.71875-0.57812c0.25-0.17188 0.51562-0.3125 0.79688-0.4375 0.28125-0.10938 0.57812-0.20312 0.875-0.26562 1.5312-0.3125 3.1562 0.1875 4.2344 1.2812 0.21875 0.21875 0.40625 0.45312 0.57812 0.71875 0.17188 0.25 0.3125 0.51562 0.4375 0.79688s0.20312 0.57812 0.26562 0.875c0.0625 0.3125 0.09375 0.60938 0.09375 0.92188s-0.03125 0.60938-0.09375 0.92188zm-10.844 27.203c0 11.199-9.1133 20.312-20.312 20.312s-20.312-9.1133-20.312-20.312 9.1133-20.312 20.312-20.312 20.312 9.1133 20.312 20.312z"/>
<text x="0.0" y="117.5" font-size="5.0" font-weight="bold" font-family="Arbeit Regular, Helvetica, Arial-Unicode, Arial, Sans-serif" fill="#000000">Created by Chehuna</text><text x="0.0" y="122.5" font-size="5.0" font-weight="bold" font-family="Arbeit Regular, Helvetica, Arial-Unicode, Arial, Sans-serif" fill="#000000">from Noun Project</text></svg>