<?xml version="1.0" encoding="utf-8"?>
<!-- Generator: Adobe Illustrator 24.3.0, SVG Export Plug-In . SVG Version: 6.00 Build 0)  -->
<svg version="1.1" id="Layer_1" xmlns="http://www.w3.org/2000/svg" xmlns:xlink="http://www.w3.org/1999/xlink" x="0px" y="0px"
	 viewBox="0 0 548.2 505.2" style="enable-background:new 0 0 548.2 505.2;" xml:space="preserve">
<style type="text/css">
	.st0{fill:url(#SVGID_1_);}
	.st1{fill:url(#SVGID_2_);}
	.st2{fill:url(#SVGID_3_);}
	.st3{fill:url(#SVGID_4_);}
	.st4{fill:url(#SVGID_5_);}
	.st5{fill:#255227;}
	.st6{fill:#082240;}
</style>
<linearGradient id="SVGID_1_" gradientUnits="userSpaceOnUse" x1="273.1753" y1="107.44" x2="273.1753" y2="8">
	<stop  offset="0" style="stop-color:#FFFFFF"/>
	<stop  offset="1" style="stop-color:#418AC9"/>
</linearGradient>
<polygon class="st0" points="460.3,103.8 460.3,107.3 460.2,107.4 450.3,107.4 451,106.5 450.8,106.5 317.6,91.5 311.6,90.8 
	311,90.8 237.2,90.8 234.8,91 228.1,91.8 95.5,106.7 96,107.4 86.2,107.4 86.1,107.3 86.1,103.8 90.3,99.5 90.6,99.2 94.1,95.7 
	181,8 365.3,8 452.3,95.7 455.5,99 456,99.5 460.2,103.7 "/>
<g>
	<linearGradient id="SVGID_2_" gradientUnits="userSpaceOnUse" x1="41.04" y1="440.3175" x2="41.04" y2="358.3517">
		<stop  offset="0" style="stop-color:#082240"/>
		<stop  offset="1" style="stop-color:#418AC9"/>
	</linearGradient>
	<path class="st1" d="M0,440.3v-82h65.1c3.1,0,5.9,0.8,8.5,2.3c2.5,1.5,4.6,3.6,6.2,6.2c1.6,2.6,2.3,5.4,2.3,8.4v21.2
		c0,3-0.8,5.9-2.3,8.4c-1.6,2.6-3.6,4.6-6.2,6.2c-2.5,1.5-5.4,2.3-8.5,2.3l-47.4,0.1v26.9H0z M64.2,395.5V376H17.7v19.5H64.2z
		 M63.7,440.3l-23.8-28.4H63L82,434.3v6H63.7z"/>
	<linearGradient id="SVGID_3_" gradientUnits="userSpaceOnUse" x1="194.3691" y1="440.3175" x2="194.3691" y2="358.2374">
		<stop  offset="0" style="stop-color:#082240"/>
		<stop  offset="1" style="stop-color:#418AC9"/>
	</linearGradient>
	<path class="st2" d="M161.8,438c-2.6-1.5-4.6-3.6-6.2-6.2c-1.5-2.6-2.3-5.4-2.3-8.4v-65.2H171v64.3h46.5v-64.3h17.9v65.2
		c0,3-0.8,5.9-2.3,8.4c-1.6,2.6-3.6,4.6-6.2,6.2c-2.5,1.5-5.3,2.3-8.4,2.3h-48.3C167.2,440.3,164.3,439.6,161.8,438z"/>
	<linearGradient id="SVGID_4_" gradientUnits="userSpaceOnUse" x1="348.8359" y1="440.3175" x2="348.8359" y2="358.2374">
		<stop  offset="0" style="stop-color:#082240"/>
		<stop  offset="1" style="stop-color:#418AC9"/>
	</linearGradient>
	<path class="st3" d="M307.8,358.2h62c3,0,5.8,0.8,8.4,2.3c2.5,1.5,4.6,3.6,6.2,6.1c1.6,2.5,2.3,5.4,2.3,8.5v15.4
		c0,1-0.1,1.9-0.2,2.8c-0.1,0.9-0.3,1.7-0.6,2.5c1.1,1.4,2.1,3.1,2.8,5c0.8,1.9,1.1,3.8,1.1,5.7v17c0,3-0.8,5.9-2.3,8.4
		c-1.6,2.6-3.6,4.6-6.2,6.2c-2.5,1.5-5.4,2.3-8.5,2.3h-65.1V358.2z M368.8,389.7V376h-43.3v13.7H368.8z M372,422.5v-15h-46.5v15H372
		z"/>
	<linearGradient id="SVGID_5_" gradientUnits="userSpaceOnUse" x1="501.3086" y1="440.3175" x2="501.3086" y2="358.2374">
		<stop  offset="0" style="stop-color:#082240"/>
		<stop  offset="1" style="stop-color:#418AC9"/>
	</linearGradient>
	<path class="st4" d="M492.4,440.3v-30.7l-38-51.4h21.1l25.8,32.4l25.6-32.4h21.3l-38.1,51.5v30.6H492.4z"/>
</g>
<g>
	<path class="st5" d="M9.1,505.2l15-33.6h7.7l15,33.6h-8.2l-12.3-29.7h3.1l-12.3,29.7H9.1z M16.6,498l2.1-5.9H36l2.1,5.9H16.6z"/>
	<path class="st5" d="M62.3,505.2v-33.6h7.8v27.3h16.8v6.3H62.3z"/>
	<path class="st5" d="M103.3,505.2v-33.6h14.5c3,0,5.6,0.5,7.8,1.5c2.2,1,3.9,2.4,5,4.2c1.2,1.8,1.8,4,1.8,6.5
		c0,2.5-0.6,4.7-1.8,6.5s-2.9,3.2-5,4.2c-2.2,1-4.8,1.5-7.8,1.5h-10.2l3.5-3.5v12.8H103.3z M111.1,493.3l-3.5-3.7h9.8
		c2.4,0,4.2-0.5,5.4-1.5s1.8-2.4,1.8-4.3c0-1.9-0.6-3.3-1.8-4.3s-3-1.5-5.4-1.5h-9.8l3.5-3.7V493.3z"/>
	<path class="st5" d="M150,505.2v-33.6h7.8v33.6H150z"/>
	<path class="st5" d="M177.7,505.2v-33.6h6.4l19.8,24.2h-3.1v-24.2h7.7v33.6h-6.4L182.3,481h3.1v24.2H177.7z"/>
	<path class="st5" d="M228.5,505.2v-33.6h25.4v6.2h-17.7v21.1h18.3v6.2H228.5z M235.7,491.2v-6h16.2v6H235.7z"/>
	<path class="st5" d="M305.3,505.2v-27.3h-10.8v-6.3h29.3v6.3H313v27.3H305.3z"/>
	<path class="st5" d="M340,505.2v-33.6h14.4c4.7,0,8.3,1.1,10.9,3.2c2.6,2.2,3.9,5.1,3.9,9c0,2.5-0.6,4.6-1.8,6.5
		c-1.2,1.8-2.9,3.2-5,4.2s-4.8,1.4-7.8,1.4h-10.2l3.5-3.4v12.8H340z M347.7,493.3l-3.5-3.6h9.8c2.4,0,4.2-0.5,5.4-1.6
		c1.2-1,1.8-2.5,1.8-4.3c0-1.9-0.6-3.3-1.8-4.3s-3-1.5-5.4-1.5h-9.8l3.5-3.7V493.3z M361.3,505.2l-8.4-12.2h8.3l8.5,12.2H361.3z"/>
	<path class="st5" d="M382.8,505.2l15-33.6h7.7l15,33.6h-8.2L400,475.5h3.1l-12.3,29.7H382.8z M390.3,498l2.1-5.9h17.3l2.1,5.9
		H390.3z"/>
	<path class="st5" d="M436,505.2v-33.6h7.8v33.6H436z"/>
	<path class="st5" d="M463.7,505.2v-33.6h7.8v27.3h16.8v6.3H463.7z"/>
	<path class="st5" d="M515.6,505.8c-2.7,0-5.3-0.4-7.7-1.1c-2.5-0.7-4.4-1.7-6-2.8l2.6-5.9c1.4,1,3.1,1.9,5.1,2.5c2,0.7,4,1,6,1
		c1.5,0,2.8-0.2,3.7-0.5c0.9-0.3,1.6-0.7,2.1-1.3s0.7-1.2,0.7-1.9c0-0.9-0.4-1.6-1.1-2.1c-0.7-0.5-1.6-1-2.8-1.3s-2.4-0.7-3.8-1
		c-1.4-0.3-2.8-0.7-4.2-1.1c-1.4-0.4-2.7-1-3.8-1.7c-1.2-0.7-2.1-1.6-2.8-2.8c-0.7-1.2-1.1-2.6-1.1-4.4c0-1.9,0.5-3.7,1.6-5.3
		c1-1.6,2.6-2.8,4.7-3.8c2.1-0.9,4.7-1.4,7.9-1.4c2.1,0,4.2,0.2,6.2,0.7s3.9,1.2,5.4,2.2l-2.4,5.9c-1.6-0.9-3.1-1.6-4.7-2
		c-1.6-0.4-3.1-0.6-4.6-0.6c-1.5,0-2.7,0.2-3.7,0.5c-1,0.4-1.6,0.8-2.1,1.4c-0.4,0.6-0.6,1.2-0.6,1.9c0,0.9,0.4,1.6,1.1,2.1
		c0.7,0.5,1.6,1,2.8,1.3c1.2,0.3,2.4,0.6,3.8,1c1.4,0.3,2.8,0.7,4.2,1.1c1.4,0.4,2.7,1,3.8,1.7c1.2,0.7,2.1,1.6,2.8,2.8
		s1.1,2.6,1.1,4.4c0,1.9-0.5,3.6-1.6,5.2c-1.1,1.6-2.6,2.8-4.7,3.8S518.8,505.8,515.6,505.8z"/>
</g>
<g>
	<g>
		<g>
			<polygon class="st6" points="237.6,90.8 186.8,163.6 228.1,91.8 234.8,91 237.2,90.8 			"/>
		</g>
	</g>
	<g>
		<g>
			<polygon class="st6" points="359.1,163.6 308.2,90.8 311,90.8 311.6,90.8 317.6,91.5 			"/>
		</g>
	</g>
</g>
<g>
	<g>
		<path class="st6" d="M460.2,103.7l-4.2-4.2l-0.5-0.5l-3.3-3.3L365.3,8l-5.1-5.1L357.4,0H189L186,3l-5,5L94.1,95.7l-3.5,3.5
			l-0.3,0.3l-4.2,4.3v3.5l0.1,0.1l9.4-0.7l132.5-14.9l6.7-0.8l2.4-0.3H311l0.5,0.1l6.1,0.7l133.2,15l9.4,0.7L460.2,103.7
			L460.2,103.7z M103.3,97.8l86.8-87.5l40.5,73.2L103.3,97.8z M307,82.6h-67.8L198,8h150.3L307,82.6z M315.8,83.2l40.5-73.1
			l86.6,87.4L315.8,83.2z"/>
	</g>
</g>
<path class="st6" d="M460.2,103.7l-4.2-4.2l-0.5-0.5l-3.3-3.3L365.3,8l-5.1-5.1L357.4,0H189L186,3l-5,5L94.1,95.7l-3.5,3.5l-0.3,0.3
	l-4.2,4.3v3.5l0.1,0.1l2.3,3.2l0.9,1.2l4.7,6.5l107.7,149l4.5-7.5L240,203l10.2,8.2l32.2-79.1l14,48.5l23.5,29.9l-2,8.4l27.3,30.4
	l-6.1-25.8l20-24l1.5,14.8l-3.1,10l3.6,6.7l4.2,7.8l86.9-120.3l4.7-6.5l0.9-1.2l2.3-3.2l0.1-0.1L460.2,103.7L460.2,103.7z
	 M442.9,97.6L315.8,83.3l40.4-73.1L442.9,97.6z M348.3,8L307,82.6h-67.8L198,8H348.3z M190.1,10.3l40.5,73.2L103.3,97.8L190.1,10.3z
	 M205.8,210.1l-14.2,29.5l-11.5-16l6.7-15.4l6,4.1l15.1-24.2l6.9,28.6L205.8,210.1z M450.3,107.4l-75.6,104.7l-15.6-21.6l-15.9,12.2
	l-63.6-82.9c0,0-55.1,78.5-55.9,77.5c-0.8-1-15.8-19.4-15.8-19.4l-17.4,22.5h-5.9l-11.7,13.4L96,107.4l-0.5-0.7l132.5-14.9l6.7-0.8
	l2.4-0.3H311l0.5,0.1l6.1,0.7l133.2,15l0.1,0L450.3,107.4z"/>
<path class="st5" d="M329.1,272.8c-0.2-0.6-0.5-1.2-0.8-1.8c-0.5-1.1-1-2.3-1.5-3.6c0,0.3,0,0.8,0.2,1.2c0.5,1.5,0.3,1.8-0.9,1.4
	c-0.9-0.3-2.3-3.1-3.2-6.2l-1.7-5.6l-1.7,4.4c-1,2.5-1.5,5.1-1.2,5.8c0.4,1.2,0.1,1.2-1.7,0.1c-2.3-1.5-2.6-2.5-1.1-3.4
	c1.5-0.9,1.2-2.5-0.5-2.5c-0.8,0-1.5-0.5-1.5-1c0-0.6,0.5-1,1.2-1c0.6,0,0.4-0.8-0.6-1.9c-1.6-1.7-1.6-1.9,0-2.5
	c1.2-0.5,1.4-0.9,0.5-2c-0.6-0.7-0.8-1.6-0.4-1.9c0.3-0.4,0.2-0.7-0.4-0.7c-0.6,0-1.4-2-1.7-4.5c-0.7-4.2-2.5-7.2-2.7-4.3
	c0,0.7-0.2,2.2-0.5,3.3c-0.2,1.1-0.5,3.2-0.7,4.7c0,0.5-0.1,1-0.3,1.5c-0.3,0.8-0.7,1.3-1.1,1.3c-0.7,0-1.3,0.4-1.3,1
	c0,0.5,0.6,1,1.3,1c0.7,0,0.5,0.5-0.5,1c-1.2,0.7-2.7,0.5-5.2-0.7c-4.4-2.1-4.6-3.1-0.4-3.5c3.4-0.3,5.2-2.8,2.1-2.8
	c-0.8,0-2.3-0.6-3.6-1.5c-0.2-0.2-0.4-0.3-0.7-0.5c0,0,0,0-0.1,0c-2.5-1.9-2.5-2-0.3-2c0.3,0,0.6,0,0.9-0.1c0.9-0.2,1.7-0.5,1.9-0.9
	c0.3-0.6-0.1-1-0.9-1c-0.2,0-0.4,0-0.5-0.1c-0.5-0.2-0.7-0.7-0.5-1.3c0.3-0.8-0.4-1.6-1.8-2c-0.5-0.1-0.9-0.2-1.1-0.4
	c-0.9-0.3-0.6-0.6,0.6-1.3c2.4-1.4,2.1-2.4-1-3.8l-2.6-1.2l2.1-1.5c2.1-1.5,3.2-5.1,1.2-3.9c-1.6,1-3.5-0.6-1.9-1.6
	c1.2-0.8,1.1-1.1-0.1-1.9c-0.8-0.5-1.5-1.5-1.5-2.2v0c0-0.5-0.1-1.3-0.3-2.3c-0.7-3.9-2.4-10.5-2.8-10.5c-0.2,0-0.5,1.1-0.5,2.5
	c-0.1,0.9-0.2,1.8-0.3,2.5c-0.2,1.2-0.4,2-0.6,2.2c-0.1,0.2-0.4,1.9-0.7,3.8c-0.2,1.9-1,3.8-1.6,4.2c-0.9,0.6-0.8,1.1,0.3,1.7
	c1.2,0.9,1.2,1.1-0.3,1.7c-2,0.7-2.3,4-0.4,4.7c0.6,0.3-0.1,0.6-1.8,0.7l-3,0.1l2.1,1.8c2,1.6,2,1.8,0.5,2.9c-1.5,1-1.5,1.1,0.2,1.1
	c0.9,0.1,1.7,0.6,1.7,1.2c0,0.7-1.2,0.8-3.2,0.4c-2.9-0.5-3.1-0.4-1.6,0.8c2.1,1.7,1.4,2.7-2.1,2.7c-2.5,0.1-2.5,0.1-0.7,1.5
	c1.1,0.8,3,1.5,4.4,1.5c3.1,0,1.9,1.7-1.8,2.5c-3.9,0.9-3.8,2.2,0.3,3.3l3.2,0.9l-3,0.8c-1.6,0.5-3.6,1.4-4.3,2.2
	c-1.2,1.1-0.9,1.5,1.8,2.4c3.7,1.3,2.9,2.7-2.4,3.9c-3.1,0.7-3.6,0.5-3.6-1c0-1-0.7-3.3-1.5-5.1c-1.1-2.8-1.4-3-1.5-1.2
	c0,1.2-0.6,2.8-1.3,3.5c-0.8,0.7-1.2,2-0.9,3c0.2,1.1-0.1,1.8-0.9,1.8c-1.1,0-1.1,0.2,0.1,1c2.2,1.4,0.8,2-3.2,1.4l-3.6-0.6l2.6-2.5
	c1.6-1.5,2-2.3,1-2c-2.4,0.8-3-0.4-1-1.9c1.6-1.1,1.5-1.4-0.8-3.4s-2.3-2.2-0.7-3.1c2-1.2,2.3-2.9,0.4-2.9c-0.6,0-1.2-0.6-1.4-1.4
	c0-0.1-0.1-0.3-0.1-0.4c-0.1-0.9-0.8-4-1.5-6.7l-1.3-4.7l-0.1-0.3l-0.4,1l-1.2,2.9c-1,2.1-1.7,4.4-1.7,5.1c0,0.8-0.6,1.6-1.2,1.8
	c-1,0.4-1,0.6,0,0.6c1.7,0.1,1.5,2.1-0.3,2.1c-2,0-1.9,1.7,0.3,2.9c1.5,0.9,1.5,1.1-0.7,1.9l-2.4,0.9l2.1,2.1
	c0.5,0.5,0.8,0.9,1.1,1.2c0.8,1.2,0.4,1.8-1.4,1.9c-0.3,0-0.8,0-1.2,0c-1.2,0-2.3,0.4-2.3,1c0,0.5,0.5,1,1.1,1
	c0.3,0,0.5,0.2,0.5,0.6c0,0.1,0,0.3-0.1,0.4c-0.3,0.6,0.4,1.4,1.6,1.8c2.8,1.1,0.8,2.6-2.1,1.7c-0.6-0.2-1.1-0.5-1.4-1
	c-0.4-0.6-0.6-1.3-0.7-2.2c0-2.6-0.1-2.6-0.9-0.5c-0.5,1.3-1.3,2.3-1.8,2.3c-0.2,0-0.4,0-0.6-0.1c-1.4-0.5-2.6-2.8-2-4.3
	c0.4-0.9,0.1-1.5-0.7-1.6c-0.1,0-0.1,0-0.2,0c-2.2,0-3.1-3.2-1.3-4.6c2.1-1.5,2-2.4,0-2.4c-0.6,0-0.9-0.1-1-0.2
	c-0.2-0.2,0-0.6,0.5-1.2c0.9-1.1,0.8-1.5-0.4-2c-0.9-0.3-1.4-1-1-1.5c0.3-0.6-0.1-2.7-1-4.7c0-0.1,0-0.1-0.1-0.2
	c-0.3-0.9-0.7-1.9-0.9-2.8c-0.3-1.1-0.5-2.1-0.5-2.6c0-1.1-0.4-1.9-1-1.9c-0.9,0-1.4,2.9-1.3,6.7c0.1,0.7-0.4,1.3-0.9,1.3
	c-0.6,0-0.8,0.7-0.4,1.5c0.1,0.2,0.1,0.5,0.1,0.9c-0.1,0.7-0.4,1.5-1,2c-1.7,1.7-2,3-0.5,2.1c0.6-0.3,1-0.1,1,0.4
	c0,0.6-0.9,1.1-2,1.1c-1.7,0-1.8,0.3-0.8,2.5c0.6,1.4,1.5,2.5,2,2.5s0.6,0.4,0.3,1c-0.3,0.5-1.5,1-2.6,1c-2.4,0-2.5,1.6-0.1,2.9
	c1.4,0.8,1.4,1.1,0.2,1.2c-0.8,0.1-2.1,0.1-2.7,0c-0.7-0.1-1.3,0.3-1.3,0.8c0,1.3,3.5,3.2,4.4,2.4c0.2-0.2,0.5-0.2,0.6,0.2
	c0,0.1,0,0.2,0,0.3c0,0.5-0.4,0.8-0.9,1c-0.3,0.1-0.7,0.2-1.1,0.2c-1.1,0-2,0.4-2,1c0,0.5,0.7,1,1.6,1c0,0,0,0,0,0
	c0.8,0,1.2,0.4,0.9,1c-0.2,0.4-1.1,0.8-2.2,0.9c-0.3,0-0.7,0.1-1.1,0.1c-2.6,0.1-2.6,0.1-0.7,1.6c0.1,0.1,0.3,0.2,0.4,0.3
	c1.1,0.6,2.5,1,3.4,0.7c0.9-0.2,1.7,0,1.7,0.5c0,1.5-4.1,3.1-6.5,2.5c-0.4-0.1-0.7-0.2-1-0.2l-0.8,1.2l4.8,6.6l0.5,0.8l0.5,0.7
	l0.1,0.1l25.2,34.9l0.7,1l21.1,29.2l21.1-29.1l0.7-1l34.8-48.2C329.6,273.8,329.4,273.3,329.1,272.8z M242.3,273.8
	c-0.2-0.3-0.3-0.7-0.4-1.2c0,0,0,0,0-0.1c-0.3-1.2-0.9-2-1.4-2c-0.5,0-0.6-0.7-0.3-1.5c0.6-1.7,1.8-1.9,2.6-1c0.5,0.5,0.8,1.3,1,2.5
	c0.1,0.4,0.1,0.8,0.1,1.1C243.9,273.9,243,275.1,242.3,273.8z M252.1,271.6c-0.3,0.5-1.1,1-1.6,1c-0.6,0-0.7-0.5-0.4-1
	c0.3-0.6,1.1-1,1.6-1C252.3,270.6,252.4,271,252.1,271.6z M254,257.4c-0.4,0.1-0.8,0.1-1.1-0.1c-0.3-0.4,0-0.7,0.7-0.7
	c0.5,0,0.7,0.1,0.8,0.3L254,257.4z M266.6,270.6c-0.5,0-1-0.5-1-1c0-0.6,0.5-1,1-1c0.6,0,1,0.4,1,1
	C267.6,270.1,267.2,270.6,266.6,270.6z M274.4,268.6c-1.9,0-2-0.2-0.8-1c1.9-1.3,3-1.3,3,0C276.6,268.1,275.6,268.6,274.4,268.6z
	 M304.3,266.2c-0.3,0.3-1.2,0.4-1.9,0.1c-0.8-0.3-0.5-0.6,0.6-0.6C304.1,265.6,304.7,265.9,304.3,266.2z M306.1,259.7
	c-0.7,1.1-6.2,1.2-6.9,0.1c-0.2-0.4,1.3-0.9,3.5-0.9C305,258.8,306.4,259.1,306.1,259.7z M318.5,274c-0.2,0.2-0.7,0.1-1.3-0.2
	c-0.4-0.2-0.8-0.4-1.2-0.7c-1.7-1.3-1.2-1.8,0.4-1.1c0.4,0.1,0.8,0.4,1.2,0.6C318.4,273.1,318.8,273.7,318.5,274z M325.4,273.5
	c-2.2,0-2.2-0.1-0.3-0.9c1.1-0.5,2.1-0.9,2.3-0.9c0.1-0.1,0.2,0.3,0.2,0.9C327.6,273.1,326.6,273.6,325.4,273.5z"/>
</svg>
