<svg xmlns:dc="http://purl.org/dc/elements/1.1/" xmlns:cc="http://creativecommons.org/ns#" xmlns:rdf="http://www.w3.org/1999/02/22-rdf-syntax-ns#" xmlns:svg="http://www.w3.org/2000/svg" xmlns="http://www.w3.org/2000/svg" xmlns:sodipodi="http://sodipodi.sourceforge.net/DTD/sodipodi-0.dtd" xmlns:inkscape="http://www.inkscape.org/namespaces/inkscape" version="1.1" x="0px" y="0px" viewBox="0 0 100 125"><g transform="translate(0,-952.36218)"><path style="text-indent:0;text-transform:none;direction:ltr;block-progression:tb;baseline-shift:baseline;color:#000000;enable-background:accumulate;" d="m 35.621601,978.35126 a 2.0000051,2.0000051 0 0 0 -1.0103,0.33562 2.0000051,2.0000051 0 0 0 -0.0879,0.06 2.0000051,2.0000051 0 0 0 -0.0187,0.0137 2.0000051,2.0000051 0 0 0 -0.7794,1.20406 l -4.154,10.83938 -0.0226,0.0444 c -3.4972,-2.03092 -7.4053,-2.20518 -10.5887,-1.77157 a 2.0000051,2.0000051 0 1 0 0.5397,3.96281 c 2.696,-0.36722 5.6742,-0.19036 8.2366,1.38375 l -0.1926,0.38 c -1.7046,-0.62484 -3.5426,-0.96656 -5.4587,-0.96656 -8.869999,0 -16.0849995,7.32255 -16.0849995,16.26405 0,8.9504 7.2150005,16.2744 16.0849995,16.2744 8.8787,0 16.085,-7.3257 16.085,-16.2744 0,-5.5784 -2.8059,-10.52761 -7.073099,-13.46092 l 1.6647,-3.28344 c 2.4545,6.24383 7.1479,14.44146 17.6278,18.37876 a 2.0000051,2.0000051 0 0 0 1.5,0.3656 l 10.052499,0 c 0.979501,8.016 7.765901,14.2744 15.973097,14.2744 8.87,0 16.085001,-7.324 16.085001,-16.2744 0,-8.9415 -7.215001,-16.26405 -16.085001,-16.26405 -3.2279,0 -6.235597,0.96863 -8.757197,2.63031 l -0.255,-0.23156 c 2.2084,-2.51437 5.418198,-4.09062 9.012197,-4.09062 0.160301,0 0.2783,10e-4 0.3547,0.006 a 2.0000051,2.0000051 0 1 0 0.2525,-3.99188 c -0.2442,-0.0154 -0.4469,-0.0141 -0.6072,-0.0141 -4.745597,0 -9.029897,2.08725 -11.971297,5.40156 l -2.9993,-2.72469 0,-2.21906 0,-0.67875 3.2897,0 a 2.0000051,2.0000051 0 1 0 0,-3.99937 l -4.9632,0 a 2.0000051,2.0000051 0 0 0 -0.6478,0 l -4.9578,0 a 2.0000051,2.0000051 0 1 0 0,3.99937 l 3.2794,0 0,0.67875 0,2.31406 a 2.0000051,2.0000051 0 0 0 -0.0284,0.0834 l -8.2766,16.52753 c -10.6739,-4.559 -13.7789,-14.02288 -15.6069,-19.79842 l 2.0497,-5.34906 6.2828,0.025 a 2.0000051,2.0000051 0 1 0 0.016,-3.99938 l -7.336,-0.0294 a 2.0000051,2.0000051 0 0 0 -0.4237,-0.0253 z m 25.83,16.51843 4.6412,4.21625 c -2.2276,2.43976 -3.7282,5.56466 -4.1506,9.01536 l -7.1163,0 6.6257,-13.23161 z m -39.3666,2.96688 c 1.268,0 2.4894,0.19634 3.6366,0.56062 l -5.4703,10.78941 a 2.0000051,2.0000051 0 1 0 3.5674,1.8087 l 5.4582,-10.7653 c 2.9715,2.2282 4.8937,5.8095 4.8937,9.8709 0,6.8173 -5.3963,12.2747 -12.0856,12.2747 -6.6778,0 -12.0852995,-5.4591 -12.0852995,-12.2747 0,-6.804 5.4074995,-12.26433 12.0853005,-12.26433 z m 55.829997,0 c 6.6778,0 12.0853,5.46033 12.0853,12.26433 0,6.8156 -5.4075,12.2747 -12.0853,12.2747 -6.020197,0 -11.000396,-4.4219 -11.936597,-10.2747 l 15.212497,0 a 2.0000051,2.0000051 0 0 0 1.3447,-3.48 l -10.300297,-9.35808 c 1.692797,-0.91068 3.625497,-1.42625 5.679697,-1.42625 z m -8.879696,3.92283 6.980597,6.3419 -10.036797,0 c 0.3902,-2.4327 1.4812,-4.6186 3.0562,-6.3419 z" fill="#000000" fill-opacity="1" fill-rule="evenodd" stroke="none" marker="none" visibility="visible" display="inline" overflow="visible"/></g><text x="0" y="115" fill="#000000" font-size="5px" font-weight="bold" font-family="'Helvetica Neue', Helvetica, Arial-Unicode, Arial, Sans-serif">Created by AliWijaya</text><text x="0" y="120" fill="#000000" font-size="5px" font-weight="bold" font-family="'Helvetica Neue', Helvetica, Arial-Unicode, Arial, Sans-serif">from the Noun Project</text></svg>