<svg width="26" height="26" viewBox="0 0 26 26" fill="none" xmlns="http://www.w3.org/2000/svg">
<path d="M25 20.2H5.8C5.16348 20.2 4.55303 19.9471 4.10294 19.4971C3.65286 19.047 3.4 18.4365 3.4 17.8V7C3.4 6.36348 3.14714 5.75303 2.69706 5.30294C2.24697 4.85286 1.63652 4.6 1 4.6M19 15.4V3.4C19 2.76348 18.7471 2.15303 18.2971 1.70294C17.847 1.25286 17.2365 1 16.6 1H15.4C14.7635 1 14.153 1.25286 13.7029 1.70294C13.2529 2.15303 13 2.76348 13 3.4V15.4M9.4 5.8H22.6C23.2627 5.8 23.8 6.33726 23.8 7V14.2C23.8 14.8627 23.2627 15.4 22.6 15.4H9.4C8.73726 15.4 8.2 14.8627 8.2 14.2V7C8.2 6.33726 8.73726 5.8 9.4 5.8ZM22.6 22.6C22.6 23.9255 21.5255 25 20.2 25C18.8745 25 17.8 23.9255 17.8 22.6C17.8 21.2745 18.8745 20.2 20.2 20.2C21.5255 20.2 22.6 21.2745 22.6 22.6ZM11.8 22.6C11.8 23.9255 10.7255 25 9.4 25C8.07452 25 7 23.9255 7 22.6C7 21.2745 8.07452 20.2 9.4 20.2C10.7255 20.2 11.8 21.2745 11.8 22.6Z" stroke="white" stroke-width="2" stroke-linecap="round" stroke-linejoin="round"/>
</svg>
