<svg xmlns="http://www.w3.org/2000/svg" version="1.1" viewBox="-5.0 -10.0 110.0 135.0">
 <path d="m38.395 7.1094c-5.1914 1.3789-9.8984 3.6602-13.855 6.6211-5.4414 4.0781-9.4609 9.4453-11.34 15.512 4.8867-1.3516 10.43-0.11328 16.441 1.6172 0.77734-7.918 3.0078-14.953 6.168-20.152 0.80078-1.3164 1.6641-2.5234 2.582-3.6016zm-4.2734 25.078c5.125 1.5195 10.539 3.0312 15.879 3.2266 5.3359-0.19531 10.754-1.707 15.879-3.2266-0.625-7.5859-2.6602-14.27-5.5977-19.094-2.832-4.6523-6.4414-7.4805-10.281-7.4805s-7.4492 2.8281-10.281 7.4805c-2.9336 4.8242-4.9727 11.508-5.5977 19.094zm36.238-1.3242c6.0117-1.7344 11.555-2.9688 16.441-1.6172-1.8828-6.0664-5.8984-11.434-11.34-15.512-3.9531-2.9648-8.6602-5.2422-13.855-6.6211 0.91797 1.0781 1.7812 2.2812 2.5859 3.6016 3.1602 5.1992 5.3906 12.234 6.168 20.152zm-25.641 29.66v32.375c0 0.40625 0.16797 0.78125 0.44141 1.0547 0.26953 0.27344 0.64453 0.44141 1.0547 0.44141 0.40625 0 0.78125-0.16797 1.0547-0.44141 0.27344-0.27344 0.44141-0.64453 0.44141-1.0547v-16.609c0-1.2656 1.0273-2.2969 2.2969-2.2969 1.2656 0 2.2969 1.0273 2.2969 2.2969v16.609c0 0.40625 0.16797 0.78125 0.4375 1.0547 0.27344 0.27344 0.64453 0.44141 1.0547 0.44141 0.40625 0 0.78125-0.16797 1.0547-0.44141 0.27344-0.27344 0.44141-0.64453 0.44141-1.0547v-32.375zm-4.5938 9.3242v-9.3242h-1.4922c-0.40625 0-0.78125 0.16797-1.0547 0.44141-0.27344 0.27344-0.44141 0.64453-0.44141 1.0547v7.832c0 0.40625 0.16797 0.78125 0.44141 1.0547s0.64453 0.44141 1.0547 0.44141c0.40625 0 0.78125-0.16797 1.0547-0.44141 0.26953-0.26953 0.4375-0.64453 0.4375-1.0547zm19.746-9.3242v9.3242c0 0.40625 0.16797 0.78125 0.44141 1.0547 0.27344 0.27344 0.64453 0.44141 1.0547 0.44141 0.40625 0 0.78125-0.16797 1.0547-0.44141 0.27344-0.26953 0.44141-0.64453 0.44141-1.0547v-7.832c0-0.40625-0.16797-0.78125-0.44141-1.0547-0.27344-0.27344-0.64453-0.44141-1.0547-0.44141h-1.4922zm-27.324 3.4023-17.207-30.434c-1.4727 0.26172-2.8203 0.78906-4.0156 1.6719-0.46094 0.33984-1.0469 0.51172-1.6602 0.42969-1.2539-0.16016-2.1367-1.3125-1.9727-2.5664 1.2109-9.1172 6.4141-17.191 14.098-22.953 7.5117-5.6289 17.398-9.0508 28.207-9.0508s20.695 3.4219 28.207 9.0508c7.6602 5.7461 12.859 13.793 14.09 22.883 0.097656 0.58984-0.039063 1.2109-0.42188 1.7305-0.75391 1.0156-2.1875 1.2266-3.1992 0.47656-1.1953-0.88281-2.543-1.4141-4.0156-1.6719l-17.207 30.434v5.9219c0 1.6758-0.68359 3.1992-1.7852 4.3008-1.1016 1.1016-2.6211 1.7852-4.3008 1.7852-0.51562 0-1.0156-0.066406-1.4922-0.1875v17.152c0 1.6758-0.68359 3.1992-1.7852 4.3008-1.1016 1.1016-2.625 1.7852-4.3008 1.7852-1.4297 0-2.7461-0.49609-3.7891-1.3281-1.0391 0.83203-2.3594 1.3281-3.7891 1.3281-1.6758 0-3.1992-0.68359-4.3008-1.7852-1.1016-1.1016-1.7852-2.6211-1.7852-4.3008v-17.152c-0.47656 0.12109-0.97656 0.1875-1.4922 0.1875-1.6758 0-3.1992-0.68359-4.3008-1.7852-1.1016-1.1016-1.7852-2.625-1.7852-4.3008v-5.9219zm-11.957-30.434 13.711 24.254 0.027344-0.027344c0.58594-0.58594 1.2852-1.0508 2.0664-1.3633l-6.4766-20.633c-3.3164-0.98047-6.4609-1.8555-9.3281-2.2305zm45.098 24.254 13.711-24.254c-2.8672 0.37891-6.0156 1.25-9.3281 2.2305l-6.4766 20.633c0.78125 0.30859 1.4805 0.77734 2.0664 1.3633l0.03125 0.027344zm-30.477-20.461 5.8555 18.645h1.3984c-0.60156-1.1602-0.9375-2.4805-0.9375-3.8789 0-2.3398 0.94922-4.4531 2.4805-5.9883 1.5312-1.5312 3.6523-2.4805 5.9883-2.4805 2.3398 0 4.4531 0.94922 5.9883 2.4805 1.5312 1.5312 2.4805 3.6523 2.4805 5.9883 0 1.3984-0.33984 2.7148-0.9375 3.8789h1.3984l5.8555-18.645c-4.6797 1.3398-9.5898 2.5273-14.672 2.707h-0.18359c-5.0938-0.17578-10.02-1.3633-14.711-2.7109zm14.785 18.645c1.0703 0 2.0391-0.43359 2.7422-1.1367 0.70312-0.69922 1.1328-1.6719 1.1328-2.7422 0-1.0703-0.43359-2.043-1.1328-2.7422-0.70312-0.70312-1.6719-1.1367-2.7422-1.1367-1.0703 0-2.0391 0.43359-2.7422 1.1367-0.70312 0.69922-1.1367 1.6719-1.1367 2.7422 0 1.0703 0.43359 2.0391 1.1367 2.7422s1.6719 1.1367 2.7422 1.1367z"/>
<text x="0.0" y="117.5" font-size="5.0" font-weight="bold" font-family="Arbeit Regular, Helvetica, Arial-Unicode, Arial, Sans-serif" fill="#000000">Created by YANDI RS</text><text x="0.0" y="122.5" font-size="5.0" font-weight="bold" font-family="Arbeit Regular, Helvetica, Arial-Unicode, Arial, Sans-serif" fill="#000000">from Noun Project</text></svg>