<svg xmlns="http://www.w3.org/2000/svg" version="1.1" viewBox="-5.0 -10.0 110.0 135.0">
 <path d="m18.066 57.398 20.965-13.715 5.2148 2.4062 13.113-6.9961 24.551 18.379-6.9219-3.0859-8.8516-6.1211-0.30078 1.7812 2.4062 2.5352-3.1367-1.3047-7.875-7.4258-4.5156 2.2305-0.80078 2.3789 4.0898 0.77344-1.5312 2.4844 1.7812 2.4609c-0.52344-0.023438-1.0312-0.050782-1.5312-0.050782l-5.2383-3.4609-2.0781 0.60156-7.6758-2.9609 4.7891 5.8203c-0.90625 0.050782-1.7812 0.074219-2.6602 0.125l-4.5156-2.6602-1.2031-2.2305-1.9297 2.6602zm31.918-2.5586c16.625 0 30.945 2.4844 37.441 6.0703-8.75-2.3789-22.27-3.9336-37.441-3.9336s-28.664 1.5547-37.414 3.9336c6.4688-3.5859 20.789-6.0703 37.414-6.0703z" fill-rule="evenodd"/>
<text x="0.0" y="117.5" font-size="5.0" font-weight="bold" font-family="Arbeit Regular, Helvetica, Arial-Unicode, Arial, Sans-serif" fill="#000000">Created by Deni Sudibyo</text><text x="0.0" y="122.5" font-size="5.0" font-weight="bold" font-family="Arbeit Regular, Helvetica, Arial-Unicode, Arial, Sans-serif" fill="#000000">from Noun Project</text></svg>