<svg xmlns="http://www.w3.org/2000/svg" version="1.1" viewBox="-5.0 -10.0 110.0 135.0">
 <path d="m49.996 2.4258c5.6016 0 10.484 5.6016 13.852 14.652 2.0547 5.5234 3.5977 12.398 4.4219 20.066l1.1289-0.65234c-0.51953-1.6719-0.53516-3.4258-0.097657-5.0547 0.58984-2.1992 2.0039-4.1836 4.1016-5.4453l0.125-0.078126 9.6406-5.5664c0.95312-0.55078 2.1758-0.22656 2.7266 0.72656l7.0977 12.293c0.55078 0.95312 0.22656 2.1758-0.72656 2.7266l-9.6562 5.5703c-2.1719 1.25-4.6484 1.5-6.8828 0.89844-1.6328-0.4375-3.1484-1.3281-4.3359-2.6133l-2.7344 1.5781c0.19141 2.7461 0.28906 5.5781 0.28906 8.4688 0 12.809-1.9492 24.453-5.0977 32.922-3.3672 9.0547-8.25 14.652-13.852 14.652-5.6016 0-10.484-5.6016-13.852-14.652-2.0547-5.5234-3.5977-12.398-4.4219-20.066l-1.1289 0.65234c0.51953 1.6719 0.53516 3.4258 0.10156 5.0586-0.60156 2.2461-2.0625 4.2695-4.2266 5.5195l-9.6445 5.5664c-0.95312 0.55078-2.1758 0.22656-2.7266-0.72656l-7.0977-12.301c-0.54688-0.94922-0.21875-2.168 0.72656-2.7188l9.7734-5.6367c2.1406-1.1914 4.5664-1.4219 6.7656-0.83203 1.6289 0.4375 3.1445 1.3281 4.332 2.6133l2.7383-1.582c-0.19141-2.75-0.28906-5.5781-0.28906-8.4688 0-12.809 1.9492-24.453 5.0977-32.922 3.3672-9.0547 8.25-14.652 13.852-14.652zm23.02 31.98 2.3867-1.3789c0.95312-0.55078 2.1758-0.22656 2.7266 0.72656 0.55078 0.95312 0.22656 2.1758-0.72656 2.7266l-2.3906 1.3789c0.52734 0.39062 1.1211 0.67578 1.7461 0.84375 1.2656 0.33984 2.6602 0.19922 3.8672-0.49609l7.9141-4.5742-5.1016-8.8359-8.0078 4.6211c-1.1562 0.69922-1.9375 1.8125-2.2695 3.0469-0.16797 0.62891-0.21875 1.2852-0.14453 1.9375zm-46.039 31.188-2.3867 1.3789c-0.95312 0.55078-2.1758 0.22656-2.7266-0.72656s-0.22656-2.1758 0.72656-2.7266l2.3945-1.3828c-0.52734-0.39062-1.1211-0.67578-1.7461-0.84375-1.2344-0.33203-2.5898-0.20703-3.7773 0.44141l-0.089844 0.054687-7.918 4.5703 5.1016 8.8359 8.0273-4.6367c1.1523-0.70312 1.9258-1.8086 2.2578-3.0312 0.16797-0.62891 0.21875-1.2852 0.14062-1.9375zm8.2305-9.3633 4.8828-2.8203c-0.14062-1.1016-0.21094-2.2422-0.21094-3.4141 0-4.3359 1.0078-8.2969 2.6367-11.195 1.8242-3.2461 4.4648-5.2578 7.4805-5.2578 3.0195 0 5.6562 2.0117 7.4805 5.2578 0.60938 1.0898 1.1328 2.3281 1.5508 3.6797l5.4453-3.1445c-0.72656-8.0547-2.2617-15.23-4.3594-20.867-2.7656-7.4414-6.3594-12.043-10.117-12.043-3.7578 0-7.3516 4.6055-10.117 12.043-2.9844 8.0234-4.832 19.168-4.832 31.527 0 2.1172 0.054687 4.1992 0.16016 6.2344zm8.7031-5.0234 11.547-6.668c-0.36328-1.4258-0.85938-2.707-1.4648-3.7852-1.1133-1.9805-2.5352-3.2109-3.9961-3.2109-1.4609 0-2.8828 1.2266-3.9961 3.2109-1.3086 2.332-2.1172 5.5977-2.1172 9.2422 0 0.40625 0.011719 0.8125 0.03125 1.207zm20.871-7.4414-4.8828 2.8203c0.14062 1.1016 0.21094 2.2422 0.21094 3.4141 0 4.3359-1.0078 8.2969-2.6367 11.195-1.8242 3.2461-4.4648 5.2578-7.4805 5.2578-3.0195 0-5.6562-2.0117-7.4805-5.2578-0.60938-1.0898-1.1328-2.3281-1.5508-3.6797l-5.4453 3.1445c0.72656 8.0547 2.2617 15.23 4.3594 20.867 2.7656 7.4414 6.3594 12.043 10.117 12.043 3.7578 0 7.3516-4.6055 10.117-12.043 2.9844-8.0234 4.832-19.168 4.832-31.527 0-2.1172-0.054687-4.1953-0.16016-6.2344zm-8.7031 5.0234-11.547 6.668c0.36328 1.4258 0.85938 2.707 1.4648 3.7852 1.1133 1.9805 2.5352 3.2109 3.9961 3.2109 1.4609 0 2.8828-1.2266 3.9961-3.2109 1.3086-2.332 2.1172-5.5977 2.1172-9.2422 0-0.40625-0.011719-0.80859-0.03125-1.207z"/>
<text x="0.0" y="117.5" font-size="5.0" font-weight="bold" font-family="Arbeit Regular, Helvetica, Arial-Unicode, Arial, Sans-serif" fill="#000000">Created by Zero Team0</text><text x="0.0" y="122.5" font-size="5.0" font-weight="bold" font-family="Arbeit Regular, Helvetica, Arial-Unicode, Arial, Sans-serif" fill="#000000">from Noun Project</text></svg>