<svg xmlns="http://www.w3.org/2000/svg" version="1.1" viewBox="-5.0 -10.0 110.0 135.0">
 <path d="m20.312 56.25c0 0.86328 0.69922 1.5625 1.5625 1.5625h6.25c0.86328 0 1.5625 0.69922 1.5625 1.5625s-0.69922 1.5625-1.5625 1.5625h-6.25c-2.5898 0-4.6875-2.0977-4.6875-4.6875 0-2.0703 0.82422-4.0586 2.2891-5.5234 1.4648-1.4648 3.4531-2.2891 5.5234-2.2891h3.125c0.86328 0 1.5625 0.69922 1.5625 1.5625s-0.69922 1.5625-1.5625 1.5625h-3.125c-1.2422 0-2.4375 0.49219-3.3125 1.375-0.88281 0.875-1.375 2.0703-1.375 3.3125z" fill-rule="evenodd"/>
 <path d="m48.438 42.188c0-2.5859-2.0977-4.6875-4.6875-4.6875h-6.25c-2.5898 0-4.6875 2.1016-4.6875 4.6875v6.25c0 2.5898 2.0977 4.6875 4.6875 4.6875h6.25c2.5898 0 4.6875-2.0977 4.6875-4.6875zm-3.125 0v6.25c0 0.86328-0.69922 1.5625-1.5625 1.5625h-6.25c-0.86328 0-1.5625-0.69922-1.5625-1.5625v-6.25c0-0.85938 0.69922-1.5625 1.5625-1.5625h6.25c0.86328 0 1.5625 0.70312 1.5625 1.5625z" fill-rule="evenodd"/>
 <path d="m67.188 42.188c0-2.5859-2.0977-4.6875-4.6875-4.6875h-6.25c-2.5898 0-4.6875 2.1016-4.6875 4.6875v6.25c0 2.5898 2.0977 4.6875 4.6875 4.6875h6.25c2.5898 0 4.6875-2.0977 4.6875-4.6875zm-3.125 0v6.25c0 0.86328-0.69922 1.5625-1.5625 1.5625h-6.25c-0.86328 0-1.5625-0.69922-1.5625-1.5625v-6.25c0-0.85938 0.69922-1.5625 1.5625-1.5625h6.25c0.86328 0 1.5625 0.70312 1.5625 1.5625z" fill-rule="evenodd"/>
 <path d="m39.062 48.438v6.25c0 0.86328 0.69922 1.5625 1.5625 1.5625s1.5625-0.69922 1.5625-1.5625v-6.25c0-0.86328-0.69922-1.5625-1.5625-1.5625s-1.5625 0.69922-1.5625 1.5625z" fill-rule="evenodd"/>
 <path d="m57.812 48.438v6.25c0 0.86328 0.69922 1.5625 1.5625 1.5625s1.5625-0.69922 1.5625-1.5625v-6.25c0-0.86328-0.69922-1.5625-1.5625-1.5625s-1.5625 0.69922-1.5625 1.5625z" fill-rule="evenodd"/>
 <path d="m34.375 51.559v4.6875c0 3.4531 2.8008 6.2539 6.25 6.2539s6.25-2.8008 6.25-6.2539v-4.6875c0-0.85938-0.69922-1.5586-1.5625-1.5586s-1.5625 0.69922-1.5625 1.5586v4.6875c0 1.7266-1.3984 3.125-3.125 3.125s-3.125-1.3984-3.125-3.125v-4.6875c0-0.85938-0.69922-1.5586-1.5625-1.5586s-1.5625 0.69922-1.5625 1.5586z" fill-rule="evenodd"/>
 <path d="m53.125 51.559v4.6875c0 3.4531 2.8008 6.2539 6.25 6.2539s6.25-2.8008 6.25-6.2539v-4.6875c0-0.85938-0.69922-1.5586-1.5625-1.5586s-1.5625 0.69922-1.5625 1.5586v4.6875c0 1.7266-1.3984 3.125-3.125 3.125s-3.125-1.3984-3.125-3.125v-4.6875c0-0.85938-0.69922-1.5586-1.5625-1.5586s-1.5625 0.69922-1.5625 1.5586z" fill-rule="evenodd"/>
 <path d="m76.562 59.375v9.375c0 0.86328 0.69922 1.5625 1.5625 1.5625s1.5625-0.69922 1.5625-1.5625v-9.375c0-0.86328-0.69922-1.5625-1.5625-1.5625s-1.5625 0.69922-1.5625 1.5625z" fill-rule="evenodd"/>
 <path d="m20.312 59.375v9.375c0 0.86328 0.69922 1.5625 1.5625 1.5625s1.5625-0.69922 1.5625-1.5625v-9.375c0-0.86328-0.69922-1.5625-1.5625-1.5625s-1.5625 0.69922-1.5625 1.5625z" fill-rule="evenodd"/>
 <path d="m79.688 56.25c0 0.86328-0.69922 1.5625-1.5625 1.5625h-6.25c-0.86328 0-1.5625 0.69922-1.5625 1.5625s0.69922 1.5625 1.5625 1.5625h6.25c2.5898 0 4.6875-2.0977 4.6875-4.6875 0-2.0703-0.82422-4.0586-2.2891-5.5234-1.4648-1.4648-3.4531-2.2891-5.5234-2.2891h-3.125c-0.86328 0-1.5625 0.69922-1.5625 1.5625s0.69922 1.5625 1.5625 1.5625h3.125c1.2422 0 2.4375 0.49219 3.3125 1.375 0.88281 0.875 1.375 2.0703 1.375 3.3125z" fill-rule="evenodd"/>
 <path d="m46.875 46.875h6.25c0.86328 0 1.5625-0.69922 1.5625-1.5625s-0.69922-1.5625-1.5625-1.5625h-6.25c-0.86328 0-1.5625 0.69922-1.5625 1.5625s0.69922 1.5625 1.5625 1.5625z" fill-rule="evenodd"/>
 <path d="m65.625 46.875h6.25c4.3125 0 7.8125-3.5 7.8125-7.8125v-9.375c0-2.9023-1.1523-5.6836-3.2031-7.7344s-4.832-3.2031-7.7344-3.2031h-37.5c-2.9023 0-5.6836 1.1523-7.7344 3.2031s-3.2031 4.832-3.2031 7.7344v9.375c0 4.3125 3.4961 7.8125 7.8125 7.8125h6.25c0.85938 0 1.5625-0.69922 1.5625-1.5625s-0.70312-1.5625-1.5625-1.5625h-6.25c-2.5898 0-4.6875-2.0977-4.6875-4.6875v-9.375c0-2.0703 0.82031-4.0586 2.2891-5.5234 1.4648-1.4648 3.4492-2.2891 5.5234-2.2891h37.5c2.0703 0 4.0586 0.82422 5.5234 2.2891 1.4648 1.4648 2.2891 3.4531 2.2891 5.5234v9.375c0 2.5898-2.0977 4.6875-4.6875 4.6875h-6.25c-0.86328 0-1.5625 0.69922-1.5625 1.5625s0.69922 1.5625 1.5625 1.5625z" fill-rule="evenodd"/>
 <path d="m43.75 20.312v-3.125c0-0.41797 0.16406-0.8125 0.45703-1.1055s0.69141-0.45703 1.1055-0.45703h9.375c0.41406 0 0.8125 0.16406 1.1055 0.45703s0.45703 0.6875 0.45703 1.1055v3.125c0 0.85938 0.69922 1.5625 1.5625 1.5625s1.5625-0.70312 1.5625-1.5625v-3.125c0-1.2461-0.49219-2.4375-1.375-3.3164-0.875-0.87891-2.0703-1.3711-3.3125-1.3711h-9.375c-1.2422 0-2.4375 0.49219-3.3125 1.3711-0.88281 0.87891-1.375 2.0703-1.375 3.3164v3.125c0 0.85938 0.69922 1.5625 1.5625 1.5625s1.5625-0.70312 1.5625-1.5625z" fill-rule="evenodd"/>
 <path d="m65.625 20.312v-12.5c0-0.41406 0.16406-0.8125 0.45703-1.1055s0.69141-0.45703 1.1055-0.45703h4.6875c0.41406 0 0.8125 0.16406 1.1055 0.45703s0.45703 0.69141 0.45703 1.1055v14.062c0 0.86328 0.69922 1.5625 1.5625 1.5625s1.5625-0.69922 1.5625-1.5625v-14.062c0-1.2422-0.49219-2.4375-1.375-3.3125-0.875-0.88281-2.0703-1.375-3.3125-1.375h-4.6875c-1.2422 0-2.4375 0.49219-3.3125 1.375-0.88281 0.875-1.375 2.0703-1.375 3.3125v12.5c0 0.86328 0.69922 1.5625 1.5625 1.5625s1.5625-0.69922 1.5625-1.5625z" fill-rule="evenodd"/>
 <path d="m37.5 20.312v-12.5c0-1.2422-0.49219-2.4375-1.375-3.3125-0.875-0.88281-2.0703-1.375-3.3125-1.375h-4.6875c-2.5898 0-4.6875 2.0977-4.6875 4.6875v14.844c0 0.86328 0.69922 1.5625 1.5625 1.5625s1.5625-0.69922 1.5625-1.5625v-14.844c0-0.86328 0.69922-1.5625 1.5625-1.5625h4.6875c0.41406 0 0.8125 0.16406 1.1055 0.45703s0.45703 0.69141 0.45703 1.1055v12.5c0 0.86328 0.69922 1.5625 1.5625 1.5625s1.5625-0.69922 1.5625-1.5625z" fill-rule="evenodd"/>
 <path d="m26.562 45.312v23.438c0 0.86328 0.69922 1.5625 1.5625 1.5625s1.5625-0.69922 1.5625-1.5625v-23.438c0-0.86328-0.69922-1.5625-1.5625-1.5625s-1.5625 0.69922-1.5625 1.5625z" fill-rule="evenodd"/>
 <path d="m73.438 68.75v-23.438c0-0.86328-0.69922-1.5625-1.5625-1.5625s-1.5625 0.69922-1.5625 1.5625v23.438c0 0.86328 0.69922 1.5625 1.5625 1.5625s1.5625-0.69922 1.5625-1.5625z" fill-rule="evenodd"/>
 <path d="m21.875 67.188c-1.4844 0-2.9062 0.79297-4.0234 2.2891-1.3203 1.7773-2.2266 4.6328-2.2266 7.8672s0.90625 6.0898 2.2266 7.8672c1.1172 1.4961 2.5391 2.2891 4.0234 2.2891s2.9062-0.79297 4.0234-2.2891c1.3203-1.7773 2.2266-4.6328 2.2266-7.8672s-0.90625-6.0898-2.2266-7.8672c-1.1172-1.4961-2.5391-2.2891-4.0234-2.2891zm0 3.125c0.58594 0 1.0742 0.4375 1.5117 1.0312 1.0078 1.3477 1.6133 3.543 1.6133 6s-0.60547 4.6523-1.6133 6c-0.4375 0.59375-0.92578 1.0312-1.5117 1.0312s-1.0742-0.4375-1.5117-1.0312c-1.0078-1.3477-1.6133-3.543-1.6133-6s0.60547-4.6523 1.6133-6c0.4375-0.59375 0.92578-1.0312 1.5117-1.0312z" fill-rule="evenodd"/>
 <path d="m78.125 70.312c0.58594 0 1.0742 0.4375 1.5117 1.0312 1.0078 1.3477 1.6133 3.543 1.6133 6s-0.60547 4.6523-1.6133 6c-0.4375 0.59375-0.92578 1.0312-1.5117 1.0312-0.86328 0-1.5625 0.69922-1.5625 1.5625s0.69922 1.5625 1.5625 1.5625c1.4844 0 2.9062-0.79297 4.0234-2.2891 1.3203-1.7773 2.2266-4.6328 2.2266-7.8672s-0.90625-6.0898-2.2266-7.8672c-1.1172-1.4961-2.5391-2.2891-4.0234-2.2891-0.86328 0-1.5625 0.69922-1.5625 1.5625s0.69922 1.5625 1.5625 1.5625z" fill-rule="evenodd"/>
 <path d="m35.938 70.312c0.58594 0 1.0742 0.4375 1.5117 1.0312 1.0078 1.3477 1.6133 3.543 1.6133 6s-0.60547 4.6523-1.6133 6c-0.4375 0.59375-0.92578 1.0312-1.5117 1.0312-0.86328 0-1.5625 0.69922-1.5625 1.5625s0.69922 1.5625 1.5625 1.5625c1.4844 0 2.9062-0.79297 4.0234-2.2891 1.3203-1.7773 2.2266-4.6328 2.2266-7.8672s-0.90625-6.0898-2.2266-7.8672c-1.1172-1.4961-2.5391-2.2891-4.0234-2.2891-0.86328 0-1.5625 0.69922-1.5625 1.5625s0.69922 1.5625 1.5625 1.5625z" fill-rule="evenodd"/>
 <path d="m56.25 70.312c0.58594 0 1.0742 0.4375 1.5117 1.0312 1.0078 1.3477 1.6133 3.543 1.6133 6s-0.60547 4.6523-1.6133 6c-0.4375 0.59375-0.92578 1.0312-1.5117 1.0312-0.86328 0-1.5625 0.69922-1.5625 1.5625s0.69922 1.5625 1.5625 1.5625c1.4844 0 2.9062-0.79297 4.0234-2.2891 1.3203-1.7773 2.2266-4.6328 2.2266-7.8672s-0.90625-6.0898-2.2266-7.8672c-1.1172-1.4961-2.5391-2.2891-4.0234-2.2891-0.86328 0-1.5625 0.69922-1.5625 1.5625s0.69922 1.5625 1.5625 1.5625z" fill-rule="evenodd"/>
 <path d="m42.188 70.312c0.58594 0 1.0742 0.4375 1.5117 1.0312 1.0078 1.3477 1.6133 3.543 1.6133 6s-0.60547 4.6523-1.6133 6c-0.4375 0.59375-0.92578 1.0312-1.5117 1.0312-0.86328 0-1.5625 0.69922-1.5625 1.5625s0.69922 1.5625 1.5625 1.5625c1.4844 0 2.9062-0.79297 4.0234-2.2891 1.3203-1.7773 2.2266-4.6328 2.2266-7.8672s-0.90625-6.0898-2.2266-7.8672c-1.1172-1.4961-2.5391-2.2891-4.0234-2.2891-0.86328 0-1.5625 0.69922-1.5625 1.5625s0.69922 1.5625 1.5625 1.5625z" fill-rule="evenodd"/>
 <path d="m62.5 70.312c0.58594 0 1.0742 0.4375 1.5117 1.0312 1.0078 1.3477 1.6133 3.543 1.6133 6s-0.60547 4.6523-1.6133 6c-0.4375 0.59375-0.92578 1.0312-1.5117 1.0312-0.86328 0-1.5625 0.69922-1.5625 1.5625s0.69922 1.5625 1.5625 1.5625c1.4844 0 2.9062-0.79297 4.0234-2.2891 1.3203-1.7773 2.2266-4.6328 2.2266-7.8672s-0.90625-6.0898-2.2266-7.8672c-1.1172-1.4961-2.5391-2.2891-4.0234-2.2891-0.86328 0-1.5625 0.69922-1.5625 1.5625s0.69922 1.5625 1.5625 1.5625z" fill-rule="evenodd"/>
 <path d="m21.875 70.312h56.25c0.86328 0 1.5625-0.69922 1.5625-1.5625s-0.69922-1.5625-1.5625-1.5625h-56.25c-0.86328 0-1.5625 0.69922-1.5625 1.5625s0.69922 1.5625 1.5625 1.5625z" fill-rule="evenodd"/>
 <path d="m21.875 87.5h56.25c0.86328 0 1.5625-0.69922 1.5625-1.5625s-0.69922-1.5625-1.5625-1.5625h-56.25c-0.86328 0-1.5625 0.69922-1.5625 1.5625s0.69922 1.5625 1.5625 1.5625z" fill-rule="evenodd"/>
 <path d="m70.312 85.938c0 4.3125-3.5 7.8125-7.8125 7.8125h-25c-4.3125 0-7.8125-3.5-7.8125-7.8125 0-1.4727-3.125-0.86328-3.125 0 0 6.0391 4.8984 10.938 10.938 10.938h25c6.0391 0 10.938-4.8984 10.938-10.938 0 1.4727-3.125-0.86328-3.125 0z" fill-rule="evenodd"/>
 <path d="m39.062 39.062v-18.75c0-0.86328-0.69922-1.5625-1.5625-1.5625s-1.5625 0.69922-1.5625 1.5625v18.75c0 0.86328 0.69922 1.5625 1.5625 1.5625s1.5625-0.69922 1.5625-1.5625z" fill-rule="evenodd"/>
 <path d="m57.812 39.062v-18.75c0-0.86328-0.69922-1.5625-1.5625-1.5625s-1.5625 0.69922-1.5625 1.5625v18.75c0 0.86328 0.69922 1.5625 1.5625 1.5625s1.5625-0.69922 1.5625-1.5625z" fill-rule="evenodd"/>
 <path d="m45.312 39.062v-18.75c0-0.86328-0.69922-1.5625-1.5625-1.5625s-1.5625 0.69922-1.5625 1.5625v18.75c0 0.86328 0.69922 1.5625 1.5625 1.5625s1.5625-0.69922 1.5625-1.5625z" fill-rule="evenodd"/>
 <path d="m64.062 39.062v-18.75c0-0.86328-0.69922-1.5625-1.5625-1.5625s-1.5625 0.69922-1.5625 1.5625v18.75c0 0.86328 0.69922 1.5625 1.5625 1.5625s1.5625-0.69922 1.5625-1.5625z" fill-rule="evenodd"/>
<text x="0.0" y="117.5" font-size="5.0" font-weight="bold" font-family="Arbeit Regular, Helvetica, Arial-Unicode, Arial, Sans-serif" fill="#000000">Created by AmruID</text><text x="0.0" y="122.5" font-size="5.0" font-weight="bold" font-family="Arbeit Regular, Helvetica, Arial-Unicode, Arial, Sans-serif" fill="#000000">from Noun Project</text></svg>