<svg xmlns="http://www.w3.org/2000/svg" version="1.1" viewBox="-5.0 -10.0 110.0 135.0">
 <path d="m75.215 84.461h-4.5039c-0.69141 0-1.3398-0.32031-1.7578-0.875l-0.53125-0.69922c-0.035156-0.046875-0.089844-0.074219-0.14844-0.074219h-1.3125c-0.078126 0-0.14844 0.050781-0.17188 0.125l-0.34375 1.0352c-0.26562 0.78516-1 1.3125-1.8281 1.3125h-4.2969c-0.71484 0-1.3516-0.45703-1.5781-1.1367l-0.375-1.1289c-0.042969-0.125-0.15625-0.20703-0.28906-0.20703h-1.7539c-0.12891 0-0.24609 0.082031-0.28516 0.20703l-0.3125 0.93359c-0.26562 0.79688-1.0117 1.332-1.8516 1.332h-3.0586c-0.89062 0-1.7305-0.40234-2.2891-1.0977l-2.4531-3.0664c-0.023438-0.03125-0.058594-0.054688-0.097657-0.066406l-10.48-2.793c-0.14844-0.039063-0.30469-0.007813-0.42969 0.085937-0.11719 0.09375-0.19141 0.23828-0.19141 0.39062v3.7188c0 1.5625-1.2617 2.832-2.8242 2.8359l-3.2383 0.011719c-1.1211 0.003906-2.0938-0.75781-2.3672-1.8438l-0.32422-1.3047c-0.023438-0.097656-0.10938-0.16797-0.21484-0.16797h-0.92188c-0.10156 0-0.19141 0.070313-0.21875 0.16797l-0.32031 1.2969c-0.26953 1.0859-1.2461 1.8438-2.3633 1.8438l-2.293-0.007813c-1.1562 0-2.1484-0.81641-2.375-1.9531l-0.35547-1.7812c-0.046875-0.22656-0.24609-0.39063-0.47656-0.39063h-0.41797c-0.23047 0-0.42969 0.16406-0.47656 0.39063l-0.35938 1.7891c-0.22266 1.1289-1.2109 1.9453-2.3633 1.9531l-1.5977 0.011719c-0.94141 0.003906-1.8477-0.36719-2.5195-1.0312-0.67188-0.66797-1.0469-1.5703-1.0469-2.5156v-7.6289c0-1.957 1.5859-3.543 3.5469-3.543h10.109c0.42578 0 0.77344 0.34375 0.77344 0.76953 0 0.42188-0.34766 0.76953-0.77344 0.76953h-10.109c-1.1094 0-2.0078 0.89844-2.0078 2.0039v7.6289c0 0.53516 0.21484 1.0469 0.58984 1.4219 0.38281 0.37891 0.89453 0.58984 1.4297 0.58594l1.5938-0.011719c0.42188-0.003906 0.78516-0.30078 0.86719-0.71484l0.35938-1.7891c0.1875-0.94922 1.0195-1.6289 1.9844-1.6289h0.41797c0.96484 0 1.793 0.67969 1.9844 1.6289l0.35547 1.7812c0.085937 0.41406 0.44922 0.71484 0.87109 0.71875l2.293 0.003906c0.41016 0 0.76562-0.27734 0.86719-0.67578l0.32031-1.2969c0.19531-0.78516 0.90234-1.3359 1.7109-1.3359h0.92188c0.80859 0 1.5156 0.55078 1.7109 1.3359l0.32422 1.3047c0.097656 0.39844 0.45703 0.67578 0.86719 0.67578l3.2344-0.011719c0.71484 0 1.293-0.58203 1.293-1.2969v-3.7188c0-0.63281 0.29297-1.2266 0.79297-1.6133 0.50391-0.38281 1.1523-0.51172 1.7617-0.35156l10.484 2.7969c0.35547 0.09375 0.67188 0.30078 0.89844 0.58984l2.457 3.0664c0.26562 0.33203 0.66406 0.52344 1.0859 0.52344h3.0586c0.17578 0 0.33594-0.11328 0.39062-0.28516l0.3125-0.92969c0.25-0.75391 0.95312-1.2617 1.7461-1.2617h1.7539c0.79297 0 1.4961 0.50781 1.7461 1.2617l0.37891 1.1289c0.015625 0.050782 0.0625 0.085938 0.11719 0.085938h4.2969c0.16797 0 0.3125-0.10547 0.36719-0.26562l0.34375-1.0312c0.23438-0.70312 0.89453-1.1797 1.6328-1.1797h1.3125c0.54297 0 1.0508 0.25391 1.375 0.68359l0.53125 0.70312c0.125 0.16406 0.32422 0.26562 0.53125 0.26562h4.5039c0.050781 0 0.097656-0.019531 0.13281-0.058593 0.035156-0.035157 0.054688-0.082032 0.054688-0.12891v-1.3398c0-0.47266 0.1875-0.92188 0.51953-1.2539 0.33594-0.33203 0.78516-0.51953 1.2578-0.51953h1.4102c0.56641 0 1.1016 0.27344 1.4336 0.73047l0.53516 0.73828c0.007812 0.011719 0.023437 0.015625 0.039062 0.011719l8.7031-3.3477c0.60938-0.23437 1.0352-0.79687 1.0938-1.4453l0.4375-4.832c0.027344-0.27734-0.10156-0.54688-0.32812-0.70703-0.22656-0.16016-0.52344-0.1875-0.77734-0.070313l-0.007812 0.003906c-8.7617 3.9844-19.824 7.0469-30.918 6.332-12.883-0.83203-15.582-5.1094-32.938-5.0117-0.42578 0-0.77344-0.34375-0.77344-0.76562-0.003906-0.42578 0.33984-0.77344 0.76562-0.77344 17.41-0.097656 20.117 4.1797 33.047 5.0156 10.828 0.69531 21.625-2.3086 30.176-6.1953 0.10938-0.050782 0.22266-0.09375 0.33984-0.12891-0.11328-5.7891-1.418-9.1602-3.3281-11.16-1.2656-1.3242-2.7891-2.0273-4.3477-2.4531-0.41016-0.11328-0.64844-0.53906-0.53516-0.94531 0.10938-0.41016 0.53516-0.65234 0.94531-0.53906 1.8125 0.5 3.5742 1.332 5.0508 2.875 2.1055 2.2031 3.6484 5.8945 3.7578 12.32 0.14844 0.0625 0.29297 0.14062 0.42578 0.23438 0.67969 0.47656 1.0547 1.2812 0.98047 2.1055l-0.44141 4.832c-0.10938 1.2344-0.91406 2.2969-2.0703 2.7422l-8.707 3.3477c-0.66406 0.25781-1.418 0.03125-1.8359-0.54297l-0.53125-0.73438c-0.046875-0.0625-0.11719-0.097657-0.19141-0.097657h-1.4102c-0.066407 0-0.125 0.023438-0.16797 0.066407-0.046875 0.046875-0.070313 0.10547-0.070313 0.16797v1.3398c0 0.45703-0.17969 0.89453-0.50391 1.2188s-0.76172 0.50391-1.2227 0.50391zm-60.172-48.625c-0.45312 8.3203-2.1328 14.203-3.3906 19.062-1.2422 4.8008-2.0859 8.5625-0.73438 12.785 0.12891 0.40234-0.09375 0.83594-0.49609 0.96484-0.40625 0.12891-0.83984-0.09375-0.96875-0.49609-1.1602-3.625-0.85547-6.9375 0.003906-10.754 1.2109-5.3945 3.543-11.84 4.0625-21.867-0.50781-0.20703-0.97266-0.51172-1.3633-0.90625-0.77344-0.77344-1.2109-1.8242-1.2109-2.918v-6.1719c0-1.0938 0.4375-2.1445 1.2109-2.918 0.77344-0.77344 1.8242-1.2109 2.918-1.2109h19.035l0.097656-0.51562c0.53125-2.7734 2.9531-4.7773 5.7773-4.7773h2.3008c3.1289 0 5.7344 2.4023 5.9883 5.5195l0.003906 0.023438c0.11719 2.3125 0.29688 4.3945 0.54297 6.2852l0.88281-0.085937c0.42578-0.039063 0.80078 0.26953 0.83984 0.69141 0.042969 0.42188-0.26953 0.80078-0.69141 0.83984l-0.80859 0.078125c0.32031 2 0.73047 3.7695 1.2344 5.3711l1.2578-0.28906c0.41406-0.097656 0.82812 0.16016 0.92188 0.57422 0.097657 0.41406-0.16016 0.82812-0.57422 0.92188l-1.1016 0.25391c0.53516 1.418 1.1562 2.6953 1.8711 3.875l0.97266-0.72266c0.33594-0.25391 0.82031-0.18359 1.0742 0.15625 0.25391 0.33984 0.18359 0.82422-0.15625 1.0781l-1.043 0.77734c1.0117 1.4375 2.1836 2.7461 3.5273 4.0234l0.54297-0.94141c0.21094-0.37109 0.68359-0.49609 1.0508-0.28125 0.36719 0.21094 0.49609 0.67969 0.28125 1.0469l-0.71094 1.2344c1.4336 1.2266 2.9297 2.1992 4.4492 2.9805l0.49219-0.85938c0.21484-0.36719 0.68359-0.49219 1.0508-0.28125 0.36719 0.21484 0.49609 0.68359 0.28516 1.0508l-0.43359 0.75c4.7773 2.082 9.7266 2.4727 13.898 3.0781 0.41797 0.0625 0.71094 0.45312 0.64844 0.87109-0.058593 0.42188-0.44922 0.71484-0.87109 0.65234-4.3398-0.62891-9.4766-1.0781-14.445-3.2695l-1.1953 2.0742c0.60938 0.51172 0.99609 1.2812 0.99609 2.1406 0 1.5469-1.2539 2.8008-2.8008 2.8008-1.543 0-2.7969-1.2539-2.7969-2.8008s1.2539-2.8008 2.7969-2.8008c0.13281 0 0.26562 0.011718 0.39062 0.027343l1.2188-2.1055c-1.5234-0.78516-3.0195-1.75-4.4648-2.957l-0.91016 1.5742c0.35156 0.46875 0.55859 1.0469 0.55859 1.6758 0 1.543-1.2578 2.7969-2.8008 2.7969-1.5469 0-2.8008-1.2539-2.8008-2.7969 0-1.5469 1.2539-2.8008 2.8008-2.8008 0.35547 0 0.69531 0.066406 1.0117 0.1875l0.96484-1.6797c-1.5195-1.418-2.8438-2.8633-3.9805-4.4609l-1.8203 1.3555c0.074218 0.25391 0.11328 0.52344 0.11328 0.80078 0 1.543-1.2539 2.7969-2.8008 2.7969-1.543 0-2.7969-1.2539-2.7969-2.7969 0-1.5469 1.2539-2.8008 2.7969-2.8008 0.71094 0 1.3633 0.26562 1.8555 0.70312l1.8008-1.3438c-0.82812-1.3477-1.543-2.8125-2.1445-4.457l-2.957 0.67969c0 1.543-1.2539 2.7969-2.7969 2.7969-1.5469 0-2.8008-1.2539-2.8008-2.8008 0-1.543 1.2539-2.7969 2.8008-2.7969 1 0 1.8828 0.52734 2.375 1.3164l2.8828-0.66016c-0.51172-1.6602-0.92578-3.5-1.2539-5.5703l-2.7344 0.26172c-1.1328 0.10938-2.2773-0.097656-3.3008-0.58984l-2.5938-1.2461v3.668c0 1.0938-0.43359 2.1445-1.2109 2.918-0.77344 0.77344-1.8203 1.2109-2.918 1.2109h-19.676-0.03125zm20.613-14.328c0.75781 0.17188 1.457 0.55078 2.0117 1.1094 0.77734 0.77344 1.2109 1.8242 1.2109 2.918v0.79688l3.2578 1.5664c0.77344 0.37109 1.6328 0.52734 2.4883 0.44531l2.6641-0.25781c-0.25-1.9141-0.43359-4.0195-0.55078-6.3477-0.19922-2.3125-2.1328-4.0859-4.4531-4.0898h-2.3008c-2.082 0-3.875 1.4844-4.2656 3.5312zm1.6836 5.2969v-1.2695c0-0.68359-0.27344-1.3438-0.75781-1.832-0.48438-0.48438-1.1445-0.75781-1.832-0.75781h-19.676c-0.6875 0-1.3477 0.27344-1.832 0.75781-0.48438 0.48828-0.75781 1.1484-0.75781 1.832v6.1719c0 0.68359 0.27344 1.3438 0.75781 1.8281 0.48437 0.48828 1.1445 0.76172 1.832 0.76172h19.676c0.6875 0 1.3477-0.27344 1.832-0.76172 0.48438-0.48438 0.75781-1.1445 0.75781-1.8281v-4.9023zm22.926 27.664c-0.69531 0-1.2617 0.56641-1.2617 1.2617 0 0.69531 0.56641 1.2617 1.2617 1.2617 0.69922 0 1.2617-0.56641 1.2617-1.2617 0-0.69531-0.5625-1.2617-1.2617-1.2617zm-6.0078-4.5859c-0.69531 0-1.2617 0.5625-1.2617 1.2617 0 0.69531 0.56641 1.2617 1.2617 1.2617 0.69531 0 1.2617-0.56641 1.2617-1.2617 0-0.69922-0.56641-1.2617-1.2617-1.2617zm-6.5117-6.5977c-0.69531 0-1.2617 0.5625-1.2617 1.2617 0 0.69531 0.56641 1.2578 1.2617 1.2578 0.69922 0 1.2617-0.5625 1.2617-1.2578 0-0.69922-0.5625-1.2617-1.2617-1.2617zm-4.2422-7.2227c-0.69531 0-1.2617 0.56641-1.2617 1.2617 0 0.69922 0.56641 1.2617 1.2617 1.2617 0.69531 0 1.2617-0.5625 1.2617-1.2617 0-0.69531-0.56641-1.2617-1.2617-1.2617zm-15.25 9.8633c4.043 0 7.3281 3.2812 7.3281 7.3281 0 4.043-3.2852 7.3242-7.3281 7.3242-4.0469 0-7.3281-3.2812-7.3281-7.3242 0-4.0469 3.2812-7.3281 7.3281-7.3281zm0 1.5352c-3.1953 0-5.7891 2.5977-5.7891 5.793 0 3.1914 2.5938 5.7891 5.7891 5.7891 3.1914 0 5.7852-2.5977 5.7852-5.7891 0-3.1953-2.5938-5.793-5.7852-5.793z" fill-rule="evenodd"/>
<text x="0.0" y="117.5" font-size="5.0" font-weight="bold" font-family="Arbeit Regular, Helvetica, Arial-Unicode, Arial, Sans-serif" fill="#000000">Created by Ubay Creative</text><text x="0.0" y="122.5" font-size="5.0" font-weight="bold" font-family="Arbeit Regular, Helvetica, Arial-Unicode, Arial, Sans-serif" fill="#000000">from Noun Project</text></svg>