<svg xmlns="http://www.w3.org/2000/svg" version="1.1" viewBox="-5.0 -10.0 110.0 135.0">
 <path d="m50 11.5c-21.199 0-38.5 17.301-38.5 38.5 0 8.3008 2.6016 16.301 7.6016 22.898l-3.1016 14.199 14.602-3.8984c5.8984 3.3984 12.602 5.1992 19.398 5.1992 21.199 0 38.5-17.301 38.5-38.5 0-21.199-17.301-38.398-38.5-38.398zm18.5 53.699-1.8008 1.8008c-1.8008 1.8008-4.3984 2.6992-6.8984 2.3008-24.602-3.8008-28.801-21.199-29.398-29.102-0.19922-2.3984 0.69922-4.6992 2.3984-6.3008l2.1992-2.1992c1.3984-1.3984 3.6016-1.3984 5 0l4.6992 4.6992c1.3984 1.3984 1.3984 3.6016 0 5l-2.6992 2.5c-0.60156 0.60156-0.89844 1.6016-0.60156 2.3984 0.89844 2.8008 3.8008 9 12.199 12.102 0.89844 0.30078 1.8984 0.10156 2.5-0.60156l2.6016-2.6016c1.3984-1.3984 3.6016-1.3984 5 0l4.8984 4.8984c1.3008 1.5078 1.3008 3.707-0.097656 5.1055z"/>
<text x="0.0" y="117.5" font-size="5.0" font-weight="bold" font-family="Arbeit Regular, Helvetica, Arial-Unicode, Arial, Sans-serif" fill="#000000">Created by iconlabs</text><text x="0.0" y="122.5" font-size="5.0" font-weight="bold" font-family="Arbeit Regular, Helvetica, Arial-Unicode, Arial, Sans-serif" fill="#000000">from Noun Project</text></svg>